PathFileType	4	(X/Y/Z)	C:\Users\Basilio\Documents\Thesis Gigler\squatting_fais\c3dfiles\054\SJ_pre4\markers_experimental.trc
DataRate	CameraRate	NumFrames	NumMarkers	Units	OrigDataRate	OrigDataStartFrame	OrigNumFrames
200.000000	200.000000	4	61	mm	200.000000	593	1582
Frame#	Time	FHD			LBHD			RBHD			C7			T10			CLAV			LSHO			LUUPA			LMUPA			LDUPA			LLEP			LMEP			LRAD			LUL			LRFIN			RSHO			RUPA1			RMUPA			RDUPA			RLEP			RMEP			RRAD			RUL			RUFIN			LASI			RASI			USACR			LSACR			RSACR			LTHI1			LTHI2			LTHI3			LTHI4			LLFC			LMFC			LTIB1			LTIB2			LTIB3			LTIB4			LLMAL			LMMAL			LHEE			LMT1			LMT2			LMT5			RTHI			RTHI2			RTHI3			RTHI4			RLFC			RMFC			RTIB1			RTIB2			RTIB3			RTIB4			RLMAL			RMMAL			RHEE			RMT1			RMT2			RMT5			
		X1	Y1	Z1	X2	Y2	Z2	X3	Y3	Z3	X4	Y4	Z4	X5	Y5	Z5	X6	Y6	Z6	X7	Y7	Z7	X8	Y8	Z8	X9	Y9	Z9	X10	Y10	Z10	X11	Y11	Z11	X12	Y12	Z12	X13	Y13	Z13	X14	Y14	Z14	X15	Y15	Z15	X16	Y16	Z16	X17	Y17	Z17	X18	Y18	Z18	X19	Y19	Z19	X20	Y20	Z20	X21	Y21	Z21	X22	Y22	Z22	X23	Y23	Z23	X24	Y24	Z24	X25	Y25	Z25	X26	Y26	Z26	X27	Y27	Z27	X28	Y28	Z28	X29	Y29	Z29	X30	Y30	Z30	X31	Y31	Z31	X32	Y32	Z32	X33	Y33	Z33	X34	Y34	Z34	X35	Y35	Z35	X36	Y36	Z36	X37	Y37	Z37	X38	Y38	Z38	X39	Y39	Z39	X40	Y40	Z40	X41	Y41	Z41	X42	Y42	Z42	X43	Y43	Z43	X44	Y44	Z44	X45	Y45	Z45	X46	Y46	Z46	X47	Y47	Z47	X48	Y48	Z48	X49	Y49	Z49	X50	Y50	Z50	X51	Y51	Z51	X52	Y52	Z52	X53	Y53	Z53	X54	Y54	Z54	X55	Y55	Z55	X56	Y56	Z56	X57	Y57	Z57	X58	Y58	Z58	X59	Y59	Z59	X60	Y60	Z60	X61	Y61	Z61	

594	2.965	169.31982421875	1136.003784179688	-871.3968505859377	8.657168388366701	1098.571044921875	-952.2749633789065	-16.87709617614746	1095.02978515625	-814.5072021484377	-68.29318237304689	1018.214721679688	-869.1838378906252	-349.2926635742188	843.5984497070315	-911.0764160156252	-7.344692230224611	870.8506469726565	-883.3139648437502	7.791944026947023	957.1331176757815	-1030.367309570313	-129.6998291015625	964.5748291015627	-1211.48779296875	-131.816162109375	915.9337158203127	-1226.524047851563	-172.7766571044922	940.998962402344	-1262.949340820313	-217.8145599365235	897.549743652344	-1290.560791015625	-283.8931274414063	939.8843383789065	-1246.573486328125	-374.5092163085938	735.9761352539064	-1146.082641601563	-356.8844909667969	678.7131347656251	-1194.308837890625	-331.9907531738282	711.7116088867189	-1100.544189453125	8.402027130126955	922.523376464844	-719.3374633789064	-156.5839385986328	910.2913818359377	-550.5202636718751	-175.5610961914063	865.3961181640627	-546.7409057617189	-215.7317199707032	896.8275146484377	-513.8666381835939	-263.7280883789063	875.550476074219	-502.5309143066407	-306.1046752929688	931.5255126953127	-554.7650146484376	-425.914520263672	753.3218383789064	-692.9102172851564	-371.9399108886719	725.8607788085939	-721.5159912109376	-419.0249328613282	693.3083496093751	-642.3096923828126	-344.1205444335938	621.4605712890626	-1035.644409179688	-338.2073669433594	636.2824096679689	-775.9458618164065	-433.175994873047	788.5377197265627	-914.5635986328127	-460.3565979003907	770.3696289062502	-942.548034667969	-463.3951110839845	771.5344848632815	-885.7944946289065	-396.2821350097657	563.6591796875001	-1182.674194335938	-316.0634155273438	555.2901611328126	-1212.255004882813	-290.1532592773438	592.4076538085939	-1199.484619140625	-286.5881042480469	504.8340454101564	-1227.572998046875	-169.7109985351563	438.6276855468751	-1259.407592773438	-102.2330093383789	422.992889404297	-1139.951782226563	-178.7894134521485	280.7564086914063	-1221.025756835938	-258.8405761718751	268.7446289062501	-1259.275756835938	-221.5301666259766	248.2853393554688	-1243.777099609375	-256.5993041992188	181.8265228271485	-1202.67919921875	-381.3357849121094	90.55940246582033	-1218.84765625	-324.7754516601563	99.27919769287112	-1138.510986328125	-439.5343017578126	53.72334671020509	-1147.459594726563	-222.6217956542969	53.42348098754884	-1195.817626953125	-230.2791290283204	56.64573287963869	-1244.997314453125	-293.4897155761719	37.24172973632813	-1282.282836914063	-356.7361755371094	534.7911987304689	-616.6373901367189	-292.8402404785157	544.1403198242189	-594.8801269531251	-272.9222717285157	570.4471435546876	-601.3115844726564	-240.6264648437501	480.4587707519532	-575.6718750000001	-195.2048034667969	439.1816406250001	-556.1681518554689	-111.7021636962891	438.6932067871095	-668.7278442382814	-177.7556610107422	333.5353088378907	-550.9135131835939	-284.0159912109376	304.0537109375001	-554.6985473632814	-245.3099060058594	277.4129333496094	-551.9893188476564	-249.0249786376954	227.1965942382813	-578.5906372070314	-380.5354003906251	93.13038635253908	-596.9672241210939	-318.2366027832032	99.15603637695315	-667.3889770507814	-432.0309448242189	51.53579711914064	-671.7361450195314	-215.5539245605469	51.17147064208986	-604.2363891601564	-231.2401123046876	55.20943832397462	-559.0089111328126	-293.6403808593751	34.86201477050782	-529.2169189453126	
595	2.97	169.3381652832032	1136.2294921875	-871.1794433593752	8.857016563415529	1098.729614257813	-952.0269165039065	-16.822416305542	1095.139038085938	-814.3416137695315	-68.17748260498048	1018.351867675781	-869.0056152343752	-349.1244201660157	843.7314453125002	-911.0025024414065	-7.308401107788088	870.9293212890627	-883.2026367187502	7.879885196685793	957.231140136719	-1030.158325195313	-129.5450897216797	964.7415161132815	-1211.319213867188	-131.8037261962891	916.0618286132815	-1226.351318359375	-172.5748291015625	941.252136230469	-1262.688842773438	-217.834213256836	897.8215332031252	-1290.335571289063	-283.7772521972657	940.1103515625002	-1246.504150390625	-374.4572753906251	736.1053466796876	-1146.081420898438	-356.9006652832032	678.9025268554689	-1194.4375	-331.9598388671876	711.8999023437501	-1100.469116210938	8.570996284484865	922.6072387695315	-719.1812133789064	-156.5052642822266	910.3002929687502	-550.3302001953126	-175.4551391601563	865.435974121094	-546.6177368164064	-215.6321868896485	896.8229980468752	-513.8698730468751	-263.5871887207032	875.486999511719	-502.4370117187501	-306.0650634765626	931.4976806640627	-554.5997924804689	-425.8721008300782	753.4022216796876	-692.8121948242189	-371.8819885253907	725.9817504882814	-721.4494628906251	-418.9586181640626	693.3755493164064	-642.2518920898439	-344.1026916503907	621.5650634765626	-1035.6650390625	-338.1537170410157	636.3076782226564	-775.960144042969	-433.0306396484376	788.693786621094	-914.5350341796877	-460.1749877929689	770.5466918945315	-942.5110473632815	-463.2542114257814	771.7053222656252	-885.7229003906252	-396.2161254882814	563.7774658203126	-1182.658203125	-316.0325317382813	555.3655395507814	-1212.249755859375	-290.0524597167969	592.4943237304689	-1199.489868164063	-286.6269836425782	504.9028625488282	-1227.548217773438	-169.6818542480469	438.6864624023439	-1259.439697265625	-102.2386779785157	423.0094604492189	-1139.950927734375	-178.7404937744141	280.6549377441407	-1221.05224609375	-258.8336486816407	268.7518310546876	-1259.305053710938	-221.5471496582032	248.2930450439454	-1243.847412109375	-256.6253662109376	181.821533203125	-1202.648071289063	-381.3278808593751	90.55007934570314	-1218.85791015625	-324.7603454589844	99.266471862793	-1138.50390625	-439.5324707031251	53.69131088256837	-1147.46142578125	-222.5592498779297	53.40626144409181	-1195.87158203125	-230.2803955078126	56.66795730590822	-1244.972778320313	-293.4874572753907	37.26333618164063	-1282.276123046875	-356.7280273437501	534.8735961914064	-616.6480102539064	-292.8125915527344	544.2008056640626	-594.8861694335939	-272.9035644531251	570.4872436523439	-601.2971191406251	-240.6322174072266	480.4965820312501	-575.7172851562501	-195.2075195312501	439.148406982422	-556.2334594726564	-111.7879486083985	438.7154541015626	-668.8063354492189	-177.7819519042969	333.5171203613282	-550.9731445312501	-284.0044860839844	304.0561218261719	-554.7439575195314	-245.3260192871094	277.4279479980469	-552.0185546875001	-249.0306396484376	227.1498260498047	-578.6274414062501	-380.4960937500001	93.11319732666017	-596.9470825195314	-318.2404785156251	99.17163848876956	-667.3878173828126	-432.0446777343751	51.52767944335939	-671.7341308593751	-215.5323638916016	51.23359680175783	-604.2780151367189	-231.2687072753907	55.25311660766603	-559.0414428710939	-293.6522827148438	34.86817932128907	-529.2024536132814	
596	2.975	169.3763275146485	1136.38623046875	-870.9150390625002	9.057399749755861	1098.906982421875	-951.834899902344	-16.80927467346192	1095.247192382813	-814.106628417969	-68.2006301879883	1018.539916992188	-868.7149047851565	-349.0710754394532	843.8684692382815	-910.952331542969	-7.312308311462404	871.059753417969	-883.0229492187502	7.933322429656984	957.3748168945315	-1029.978637695313	-129.5559844970703	964.916198730469	-1211.156982421875	-131.6026153564453	916.2994384765627	-1226.163208007813	-172.5546264648438	941.4790039062502	-1262.5322265625	-217.7351226806641	898.057800292969	-1290.152465820313	-283.4655151367188	940.2440185546877	-1246.35205078125	-374.3965454101563	736.3228149414064	-1146.021240234375	-356.7767639160157	679.1246948242189	-1194.467407226563	-331.8656921386719	712.0938720703126	-1100.498779296875	8.775424003601076	922.7677001953127	-719.0750732421876	-156.4429016113282	910.303649902344	-550.2197265625001	-175.3446044921875	865.4351806640627	-546.4642333984376	-215.5406341552735	896.804626464844	-513.7919921875001	-263.5203552246094	875.4836425781252	-502.3339233398439	-305.8312683105469	931.408386230469	-554.4630737304689	-425.8490600585939	753.5254516601564	-692.7249755859376	-371.7416687011719	726.3843383789064	-721.2905883789064	-418.9301147460939	693.4329223632814	-642.1951293945314	-344.0853881835938	621.6719970703126	-1035.685791015625	-338.6023254394532	636.0435180664064	-775.898376464844	-432.902801513672	788.837829589844	-914.4587402343752	-460.0257263183595	770.7443847656252	-942.453796386719	-463.3512573242189	771.921569824219	-885.5640258789065	-396.2535705566407	563.9421997070314	-1182.651245117188	-316.0445251464844	555.5067749023439	-1212.234252929688	-290.1529846191407	592.5609741210939	-1199.511474609375	-286.8503723144532	505.1021118164064	-1227.486450195313	-169.9163970947266	438.6372680664064	-1259.355712890625	-102.7317276000977	422.7251892089845	-1139.975830078125	-178.7753143310547	280.7955627441407	-1220.989624023438	-258.8685607910157	268.7475891113282	-1259.279174804688	-221.5620269775391	248.2948150634766	-1243.883056640625	-256.6592712402344	181.8127746582032	-1202.680297851563	-381.3000793457032	90.53463745117189	-1218.880859375	-324.7804565429688	99.26459503173831	-1138.52734375	-439.5538024902345	53.70382690429689	-1147.468994140625	-222.5465545654297	53.37911987304689	-1195.811767578125	-230.2886352539063	56.6415481567383	-1244.979370117188	-293.4938354492188	37.25146865844727	-1282.280029296875	-356.6528320312501	534.9404907226564	-616.6653442382814	-292.8231811523438	544.2498168945314	-594.9162597656251	-272.8911132812501	570.5489501953126	-601.3021240234376	-240.631088256836	480.5268554687501	-575.7425537109376	-195.2527923583985	439.1541137695314	-556.2980957031251	-111.7912139892578	438.7073059082032	-668.7894287109376	-177.7602996826172	333.5578308105469	-551.0258789062501	-284.0052795410157	304.0542602539063	-554.7733154296876	-245.3348083496094	277.4505310058594	-552.0401611328126	-249.0229797363282	227.167221069336	-578.6303100585939	-380.5555725097657	93.1069793701172	-596.9074707031251	-318.2517700195313	99.17456817626956	-667.3933715820314	-432.0627746582032	51.4950637817383	-671.7283935546876	-215.5380554199219	51.2207374572754	-604.2367553710939	-231.2370910644532	55.29915618896486	-559.0253906250001	-293.6588439941407	34.87377929687501	-529.2039794921876	
597	2.98	169.3971557617188	1136.525390625	-870.6448364257815	9.119965553283693	1099.050170898438	-951.697448730469	-16.74540138244629	1095.338134765625	-813.9312133789065	-68.17468261718751	1018.678833007813	-868.524841308594	-348.9318542480469	843.988708496094	-910.8313598632815	-7.041910648345949	871.1258544921877	-882.895446777344	8.485473632812502	957.2558593750002	-1029.798706054688	-128.7531890869141	964.9834594726565	-1211.17578125	-131.5411682128907	916.5455322265627	-1225.941040039063	-172.650390625	941.6562500000002	-1262.181030273438	-217.6953582763672	898.2944335937502	-1290.005615234375	-283.3611755371094	940.468200683594	-1246.222534179688	-374.3597106933594	736.5138549804689	-1145.945068359375	-356.7911987304688	679.3189086914064	-1194.48095703125	-331.8496704101563	712.2748413085939	-1100.432373046875	8.884980201721193	922.8536376953127	-718.9265747070314	-156.3663940429688	910.351013183594	-550.0239868164064	-175.253402709961	865.4857177734377	-546.3012695312501	-215.4790191650391	896.8374023437502	-513.5554199218751	-263.4103698730469	875.473083496094	-502.245330810547	-305.9189147949219	931.4985351562502	-554.3327636718751	-425.6805114746095	753.6089477539064	-692.6082763671876	-371.7452697753907	726.4824218750001	-721.2981567382814	-418.8750610351564	693.4893188476564	-642.1194458007814	-343.9098815917969	621.8657836914064	-1035.808837890625	-338.9956359863282	635.7822875976564	-775.915710449219	-432.798065185547	788.9939575195315	-914.3475341796877	-459.9216613769532	770.9753417968752	-942.4949951171877	-463.4082031250001	772.1121215820315	-885.4412841796877	-396.1198730468751	564.0360107421876	-1182.652221679688	-316.0865173339844	555.6122436523439	-1212.213989257813	-290.0635986328126	592.6272583007814	-1199.531372070313	-286.9329833984376	505.1980895996095	-1227.474487304688	-169.9314270019532	438.7099914550782	-1259.309326171875	-102.6972274780274	422.8082885742189	-1139.945190429688	-178.7825164794922	280.8114318847657	-1220.969604492188	-258.8810729980469	268.7658081054688	-1259.299194335938	-221.5789031982422	248.3178710937501	-1243.859619140625	-256.7075805664063	181.785873413086	-1202.6845703125	-381.2798156738282	90.54701232910158	-1218.90087890625	-324.7798156738282	99.26589202880862	-1138.525390625	-439.5518188476564	53.67395782470705	-1147.495849609375	-222.5816192626954	53.44371032714845	-1195.875732421875	-230.2882232666016	56.65958786010744	-1244.973022460938	-293.4931640625001	37.24424362182618	-1282.276245117188	-356.6552734375001	535.0186767578126	-616.6989135742189	-292.7856140136719	544.3124389648439	-594.9456176757814	-272.8953857421876	570.5854492187501	-601.3309326171876	-240.6511535644532	480.5459594726564	-575.8113403320314	-195.253890991211	439.1652832031251	-556.3636474609376	-111.786247253418	438.676971435547	-668.8188476562501	-177.7876892089844	333.5740051269532	-551.0428466796876	-284.0173950195313	304.0488281250001	-554.7781372070314	-245.3754577636719	277.4492797851563	-552.0772705078126	-249.0245971679688	227.1407318115235	-578.6411132812501	-380.5250244140626	93.10263824462892	-596.9097900390626	-318.2436523437501	99.16046142578128	-667.3743286132814	-432.0459899902345	51.49713134765626	-671.7274780273439	-215.5581512451172	51.23502731323244	-604.2471923828126	-231.2818145751954	55.25464630126955	-559.0123291015626	-293.6522216796876	34.86933898925782	-529.1996459960939	
